<?xml version="1.0" encoding="UTF-8" standalone="no"?>
<!DOCTYPE svg PUBLIC "-//W3C//DTD SVG 1.1//EN" "http://www.w3.org/Graphics/SVG/1.1/DTD/svg11.dtd">
<svg width="100%" height="100%" viewBox="0 0 539 366" version="1.1" xmlns="http://www.w3.org/2000/svg" xmlns:xlink="http://www.w3.org/1999/xlink" xml:space="preserve" xmlns:serif="http://www.serif.com/" style="fill-rule:evenodd;clip-rule:evenodd;stroke-linecap:round;">
    <g transform="matrix(1,0,0,1,124,11)">
        <path d="M308,6C308,2.689 305.311,0 302,0L6,0C2.689,0 0,2.689 0,6L0,341C0,344.311 2.689,347 6,347L302,347C305.311,347 308,344.311 308,341L308,6Z" style="fill:white;"/>
    </g>
    <g transform="matrix(1,0,0,1,124,11)">
        <path d="M6,0L302,0C305.292,0 308,2.708 308,6L308,32L0,32L0,6C0,2.708 2.708,0 6,0Z" style="fill:rgb(150,146,137);fill-rule:nonzero;"/>
    </g>
    <g transform="matrix(1,0,0,1,124,43)">
        <path d="M0,0L62,0L62,315L6,315C2.708,315 0,312.292 0,309L0,0Z" style="fill:rgb(0,146,203);fill-opacity:0.12;fill-rule:nonzero;"/>
    </g>
    <g transform="matrix(1,0,0,1,254,74)">
        <rect x="0" y="0" width="131" height="9" style="fill:rgb(179,189,192);"/>
    </g>
    <g transform="matrix(1,0,0,1,254,93)">
        <rect x="0" y="0" width="88" height="8" style="fill:rgb(179,189,192);"/>
    </g>
    <g transform="matrix(1,0,0,1,254,111)">
        <rect x="0" y="0" width="88" height="9" style="fill:rgb(179,189,192);"/>
    </g>
    <g transform="matrix(1,0,0,1,254,145)">
        <rect x="0" y="0" width="159" height="12" style="fill:rgb(188,183,171);fill-opacity:0.91;"/>
    </g>
    <g transform="matrix(1,0,0,1,254,271)">
        <rect x="0" y="0" width="159" height="12" style="fill:rgb(188,183,171);fill-opacity:0.91;"/>
    </g>
    <g transform="matrix(1,0,0,1,254.5,213.5)">
        <path d="M0,0L159,0" style="fill:none;fill-rule:nonzero;stroke:rgb(179,189,192);stroke-width:2px;"/>
    </g>
    <g transform="matrix(1,0,0,1,259,206)">
        <circle cx="8" cy="8" r="8" style="fill:rgb(210,216,222);"/>
    </g>
    <g transform="matrix(1,0,0,1,367,206)">
        <circle cx="8" cy="8" r="8" style="fill:rgb(210,216,222);"/>
    </g>
    <g transform="matrix(1,0,0,1,313,206)">
        <circle cx="8" cy="8" r="8" style="fill:rgb(210,216,222);"/>
    </g>
    <g transform="matrix(1,0,0,1,286,206)">
        <circle cx="8" cy="8" r="8" style="fill:rgb(210,216,222);"/>
    </g>
    <g transform="matrix(1,0,0,1,394,206)">
        <circle cx="8" cy="8" r="8" style="fill:rgb(210,216,222);"/>
    </g>
    <g transform="matrix(1,0,0,1,340,206)">
        <circle cx="8" cy="8" r="8" style="fill:rgb(210,216,222);"/>
    </g>
    <g transform="matrix(1,0,0,1,261.5,193.5)">
        <path d="M0,0L58,0" style="fill:none;fill-rule:nonzero;stroke:rgb(179,189,192);stroke-width:1px;"/>
    </g>
    <g transform="matrix(1,0,0,1,261.5,187.5)">
        <path d="M0,0L58,0" style="fill:none;fill-rule:nonzero;stroke:rgb(179,189,192);stroke-width:1px;"/>
    </g>
    <g transform="matrix(1,0,0,1,261.5,175.5)">
        <path d="M0,0L58,0" style="fill:none;fill-rule:nonzero;stroke:rgb(179,189,192);stroke-width:1px;"/>
    </g>
    <g transform="matrix(1,0,0,1,261.5,181.5)">
        <path d="M0,0L58,0" style="fill:none;fill-rule:nonzero;stroke:rgb(179,189,192);stroke-width:1px;"/>
    </g>
    <g transform="matrix(1,0,0,1,261.5,169.5)">
        <path d="M0,0L58,0" style="fill:none;fill-rule:nonzero;stroke:rgb(179,189,192);stroke-width:1px;"/>
    </g>
    <g transform="matrix(1,0,0,1,261.5,258.5)">
        <path d="M0,0L58,0" style="fill:none;fill-rule:nonzero;stroke:rgb(179,189,192);stroke-width:1px;"/>
    </g>
    <g transform="matrix(1,0,0,1,261.5,252.5)">
        <path d="M0,0L58,0" style="fill:none;fill-rule:nonzero;stroke:rgb(179,189,192);stroke-width:1px;"/>
    </g>
    <g transform="matrix(1,0,0,1,261.5,240.5)">
        <path d="M0,0L58,0" style="fill:none;fill-rule:nonzero;stroke:rgb(179,189,192);stroke-width:1px;"/>
    </g>
    <g transform="matrix(1,0,0,1,261.5,246.5)">
        <path d="M0,0L58,0" style="fill:none;fill-rule:nonzero;stroke:rgb(179,189,192);stroke-width:1px;"/>
    </g>
    <g transform="matrix(1,0,0,1,261.5,234.5)">
        <path d="M0,0L58,0" style="fill:none;fill-rule:nonzero;stroke:rgb(179,189,192);stroke-width:1px;"/>
    </g>
    <g transform="matrix(1,0,0,1,345,193.5)">
        <path d="M0,0L58,0" style="fill:none;fill-rule:nonzero;stroke:rgb(179,189,192);stroke-width:1px;"/>
    </g>
    <g transform="matrix(1,0,0,1,345,187.5)">
        <path d="M0,0L58,0" style="fill:none;fill-rule:nonzero;stroke:rgb(179,189,192);stroke-width:1px;"/>
    </g>
    <g transform="matrix(1,0,0,1,345,175.5)">
        <path d="M0,0L58,0" style="fill:none;fill-rule:nonzero;stroke:rgb(179,189,192);stroke-width:1px;"/>
    </g>
    <g transform="matrix(1,0,0,1,345,181.5)">
        <path d="M0,0L58,0" style="fill:none;fill-rule:nonzero;stroke:rgb(179,189,192);stroke-width:1px;"/>
    </g>
    <g transform="matrix(1,0,0,1,345,169.5)">
        <path d="M0,0L58,0" style="fill:none;fill-rule:nonzero;stroke:rgb(179,189,192);stroke-width:1px;"/>
    </g>
    <g transform="matrix(1,0,0,1,345,258.5)">
        <path d="M0,0L58,0" style="fill:none;fill-rule:nonzero;stroke:rgb(179,189,192);stroke-width:1px;"/>
    </g>
    <g transform="matrix(1,0,0,1,345,252.5)">
        <path d="M0,0L58,0" style="fill:none;fill-rule:nonzero;stroke:rgb(179,189,192);stroke-width:1px;"/>
    </g>
    <g transform="matrix(1,0,0,1,345,240.5)">
        <path d="M0,0L58,0" style="fill:none;fill-rule:nonzero;stroke:rgb(179,189,192);stroke-width:1px;"/>
    </g>
    <g transform="matrix(1,0,0,1,345,246.5)">
        <path d="M0,0L58,0" style="fill:none;fill-rule:nonzero;stroke:rgb(179,189,192);stroke-width:1px;"/>
    </g>
    <g transform="matrix(1,0,0,1,345,234.5)">
        <path d="M0,0L58,0" style="fill:none;fill-rule:nonzero;stroke:rgb(179,189,192);stroke-width:1px;"/>
    </g>
    <g transform="matrix(1,0,0,1,334,337)">
        <path d="M0,0L75,0" style="fill:none;fill-rule:nonzero;stroke:rgb(179,189,192);stroke-width:1px;"/>
    </g>
    <g transform="matrix(1,0,0,1,334,331)">
        <path d="M0,0L75,0" style="fill:none;fill-rule:nonzero;stroke:rgb(179,189,192);stroke-width:1px;"/>
    </g>
    <g transform="matrix(1,0,0,1,334,343)">
        <path d="M0,0L75,0" style="fill:none;fill-rule:nonzero;stroke:rgb(179,189,192);stroke-width:1px;"/>
    </g>
    <g transform="matrix(1,0,0,1,334,319)">
        <path d="M0,0L75,0" style="fill:none;fill-rule:nonzero;stroke:rgb(179,189,192);stroke-width:1px;"/>
    </g>
    <g transform="matrix(1,0,0,1,334,325)">
        <path d="M0,0L75,0" style="fill:none;fill-rule:nonzero;stroke:rgb(179,189,192);stroke-width:1px;"/>
    </g>
    <g transform="matrix(1,0,0,1,334,313)">
        <path d="M0,0L75,0" style="fill:none;fill-rule:nonzero;stroke:rgb(179,189,192);stroke-width:1px;"/>
    </g>
    <g transform="matrix(1,0,0,1,257,293)">
        <circle cx="12" cy="12" r="12" style="fill:none;"/>
        <circle cx="12" cy="12" r="11" style="fill:none;stroke:rgb(210,216,222);stroke-width:2px;stroke-linecap:butt;"/>
    </g>
    <g transform="matrix(1,0,0,1,257,325)">
        <circle cx="12" cy="12" r="12" style="fill:none;"/>
        <circle cx="12" cy="12" r="11" style="fill:none;stroke:rgb(210,216,222);stroke-width:2px;stroke-linecap:butt;"/>
    </g>
    <g transform="matrix(1,0,0,1,289,293)">
        <circle cx="12" cy="12" r="12" style="fill:none;"/>
        <circle cx="12" cy="12" r="11" style="fill:none;stroke:rgb(210,216,222);stroke-width:2px;stroke-linecap:butt;"/>
    </g>
    <g transform="matrix(1,0,0,1,289,325)">
        <circle cx="12" cy="12" r="12" style="fill:none;"/>
        <circle cx="12" cy="12" r="11" style="fill:none;stroke:rgb(210,216,222);stroke-width:2px;stroke-linecap:butt;"/>
    </g>
    <g transform="matrix(1,0,0,1,334,296)">
        <rect x="0" y="0" width="75" height="9" style="fill:rgb(179,189,192);"/>
    </g>
    <g transform="matrix(1,0,0,1,7155,774)">
        <path d="M-6886,-480.131C-6887.76,-480.176 -6897.04,-478.317 -6896.94,-468.884C-6896.83,-459.451 -6888.91,-458.049 -6886,-457.934" style="fill:none;fill-rule:nonzero;stroke:rgb(118,158,178);stroke-width:3px;"/>
    </g>
    <g transform="matrix(1,0,0,1,267.5,18)">
        <path d="M10.5,0L12.979,6.875L21,6.875L14.511,11.124L16.989,18L10.5,13.751L4.011,18L6.49,11.125L0,6.875L8.021,6.875L10.5,0Z" style="fill:white;fill-rule:nonzero;"/>
    </g>
    <g transform="matrix(1,0,0,1,321.5,18)">
        <path d="M10.5,0L12.979,6.875L21,6.875L14.511,11.124L16.989,18L10.5,13.751L4.011,18L6.49,11.125L0,6.875L8.021,6.875L10.5,0Z" style="fill:white;fill-rule:nonzero;"/>
    </g>
    <g transform="matrix(1,0,0,1,213.5,18)">
        <path d="M10.5,0L12.979,6.875L21,6.875L14.511,11.124L16.989,18L10.5,13.751L4.011,18L6.49,11.125L0,6.875L8.021,6.875L10.5,0Z" style="fill:white;fill-rule:nonzero;"/>
    </g>
    <g transform="matrix(1,0,0,1,294.5,18)">
        <path d="M10.5,0L12.979,6.875L21,6.875L14.511,11.124L16.989,18L10.5,13.751L4.011,18L6.49,11.125L0,6.875L8.021,6.875L10.5,0Z" style="fill:white;fill-rule:nonzero;"/>
    </g>
    <g transform="matrix(1,0,0,1,240.5,18)">
        <path d="M10.5,0L12.979,6.875L21,6.875L14.511,11.124L16.989,18L10.5,13.751L4.011,18L6.49,11.125L0,6.875L8.021,6.875L10.5,0Z" style="fill:white;fill-rule:nonzero;"/>
    </g>
    <g transform="matrix(1,0,0,1,108.331,50.139)">
        <path d="M48.052,84.3C44.781,86.389 41.128,89.776 39.397,93.251C36.262,99.543 14.291,116.451 13.434,120.551C11.458,138.043 30.803,137.817 38.634,128.459C42.687,123.617 51.621,105.477 51.621,105.477L48.052,84.3Z" style="fill:rgb(118,158,178);fill-rule:nonzero;"/>
    </g>
    <g transform="matrix(1,0,0,1,109.068,49.646)">
        <path d="M22.426,111.843C22.426,111.843 36.948,88.463 39.8,85.191C44.16,80.191 51.741,78.186 51.741,78.186L53.374,108.843C53.474,108.419 38.365,127.729 38.365,127.729C38.365,127.729 24.254,117.244 22.428,111.843" style="fill:rgb(118,158,178);fill-rule:nonzero;"/>
    </g>
    <g transform="matrix(1,0,0,1,109.851,52.499)">
        <path d="M32.13,126.132C32.089,126.101 32.586,125.532 33.156,124.463C33.487,123.839 33.759,123.187 33.969,122.513C34.484,120.859 34.628,119.112 34.388,117.396C34.291,116.697 34.129,116.009 33.904,115.34C33.516,114.197 33.118,113.551 33.164,113.527C33.279,113.662 33.377,113.811 33.456,113.97C33.566,114.146 33.663,114.331 33.746,114.521C33.869,114.768 33.976,115.022 34.069,115.282C34.322,115.955 34.505,116.652 34.615,117.363C34.885,119.112 34.738,120.9 34.187,122.582C33.963,123.265 33.669,123.924 33.311,124.547C33.177,124.789 33.029,125.022 32.868,125.247C32.755,125.423 32.63,125.59 32.492,125.747C32.389,125.891 32.268,126.022 32.132,126.137" style="fill-rule:nonzero;"/>
    </g>
    <g transform="matrix(1,0,0,1,150.747,65.099)">
        <path d="M43.194,58.359L43.614,23.916C44,15.352 39.332,7.99 30.761,7.844L29.968,7.877C22.031,8.204 15.597,14.65 15.284,22.587C14.993,30.012 14.767,38.22 14.984,42.187C15.426,50.402 23.699,51.341 23.699,51.341C23.717,51.341 23.75,56.341 23.746,58.756L21.809,64.4L28.572,62.753L43.194,58.359Z" style="fill:rgb(255,192,157);fill-rule:nonzero;"/>
    </g>
    <g transform="matrix(1,0,0,1,147.636,50.995)">
        <path d="M26.8,65.445C30.596,65.279 34.265,64.027 37.371,61.839C40.477,59.651 35.052,68.125 26.82,67.724L26.8,65.445Z" style="fill:rgb(255,155,108);fill-rule:nonzero;"/>
    </g>
    <g transform="matrix(1,0,0,1,106.201,52.713)">
        <path d="M22.375,85.561L16.843,116.389C15.362,119.087 16.17,122.507 18.703,124.256C18.724,124.27 22.044,126.931 22.066,126.944C27.572,130.425 34.186,122.791 35.396,116.39L30.865,92.942L29.889,85.562L22.375,85.561Z" style="fill:rgb(255,192,157);fill-rule:nonzero;"/>
    </g>
    <g transform="matrix(1,0,0,1,105.812,52.93)">
        <path d="M35.794,76.57C36.468,76.731 37.13,76.94 37.774,77.197C38.437,77.4 39.089,77.638 39.727,77.91C39.042,77.802 38.371,77.618 37.727,77.361C37.061,77.157 36.415,76.892 35.798,76.57" style="fill:rgb(255,155,108);fill-rule:nonzero;"/>
    </g>
    <g transform="matrix(1,0,0,1,147.711,147.538)">
        <path d="M15.683,185.47L16.283,201.503C16.283,201.503 0.189,207.503 0.013,210.476L31.142,210.42L31.23,185.4L15.683,185.47Z" style="fill:rgb(69,90,100);fill-rule:nonzero;"/>
    </g>
    <g transform="matrix(1,0,0,1,138.875,142.215)">
        <path d="M34.747,205.461C35.364,205.648 35.746,206.277 35.628,206.911C35.462,207.534 34.831,207.925 34.199,207.797C33.546,207.596 33.145,206.928 33.274,206.257C33.515,205.625 34.219,205.289 34.862,205.5" style="fill:rgb(224,224,224);fill-rule:nonzero;"/>
    </g>
    <g transform="matrix(1,0,0,1,147.716,139.383)">
        <path d="M31.142,218.576L31.052,216.053L1.239,217.053C1.239,217.053 -0.146,217.658 0.013,218.635L31.142,218.576Z" style="fill:rgb(38,50,56);fill-rule:nonzero;"/>
    </g>
    <g transform="matrix(1,0,0,1,141.997,141.809)">
        <path d="M21.5,207.075C21.505,207.227 22.266,207.294 23.014,207.782C23.776,208.25 24.163,208.908 24.302,208.847C24.442,208.818 24.214,207.909 23.296,207.335C22.378,206.761 21.466,206.935 21.496,207.075" style="fill:white;fill-rule:nonzero;"/>
    </g>
    <g transform="matrix(1,0,0,1,143.179,141.289)">
        <path d="M17.053,208.952C17.019,209.1 17.677,209.352 18.195,209.999C18.731,210.626 18.862,211.321 19.014,211.313C19.156,211.337 19.26,210.446 18.602,209.661C17.944,208.876 17.056,208.807 17.053,208.952" style="fill:white;fill-rule:nonzero;"/>
    </g>
    <g transform="matrix(1,0,0,1,144.291,140.798)">
        <path d="M14.093,213.353C14.231,213.385 14.442,212.625 14.05,211.793C13.658,210.961 12.95,210.631 12.882,210.758C12.796,210.883 13.259,211.329 13.57,212.017C13.897,212.697 13.942,213.338 14.093,213.353" style="fill:white;fill-rule:nonzero;"/>
    </g>
    <g transform="matrix(1,0,0,1,141.901,143.287)">
        <path d="M21.86,201.928C21.924,202.067 22.621,201.855 23.481,201.913C24.341,201.952 25.011,202.24 25.089,202.113C25.177,202.003 24.523,201.441 23.51,201.389C22.497,201.337 21.785,201.814 21.86,201.933" style="fill:white;fill-rule:nonzero;"/>
    </g>
    <g transform="matrix(1,0,0,1,129.557,147.153)">
        <path d="M71.182,186.849L72.047,206.241L68.308,221.776C68.272,221.928 68.253,222.084 68.253,222.24C68.253,223.331 69.151,224.229 70.242,224.229C70.767,224.229 71.271,224.021 71.644,223.651C74.544,220.751 84.87,209.865 84.914,208.828C84.984,207.181 85.462,188.077 85.462,188.077L71.182,186.849Z" style="fill:rgb(69,90,100);fill-rule:nonzero;"/>
    </g>
    <g transform="matrix(1,0,0,1,128.957,139.745)">
        <path d="M70.509,231.61L85.588,214.692L85.606,215.514C85.611,216.223 85.375,216.912 84.938,217.47C83.738,218.944 80.333,222.944 72.303,231.059C71.835,231.531 71.161,231.738 70.509,231.61" style="fill:rgb(38,50,56);fill-rule:nonzero;"/>
    </g>
    <g transform="matrix(1,0,0,1,125.155,142.056)">
        <path d="M85.272,206.207C84.787,206.578 84.657,207.262 84.972,207.785C85.327,208.282 86.017,208.418 86.534,208.092C87.044,207.695 87.175,206.969 86.834,206.419C86.409,205.939 85.672,205.878 85.174,206.281" style="fill:white;fill-opacity:0.6;fill-rule:nonzero;"/>
    </g>
    <g transform="matrix(1,0,0,1,128.858,137.504)">
        <path d="M74.86,225.276C74.38,224.68 73.792,224.181 73.126,223.804C72.408,223.538 71.647,223.409 70.882,223.425C70.864,223.378 71.107,223.225 71.559,223.148C72.773,222.991 73.974,223.55 74.636,224.58C74.871,224.973 74.908,225.26 74.86,225.28" style="fill:white;fill-rule:nonzero;"/>
    </g>
    <g transform="matrix(1,0,0,1,129.216,136.248)">
        <path d="M73.175,229.16C72.612,228.859 72.032,228.592 71.438,228.36C70.809,228.256 70.175,228.189 69.538,228.16C70.136,227.769 70.887,227.691 71.552,227.952C72.701,228.262 73.276,229.106 73.175,229.16" style="fill:white;fill-rule:nonzero;"/>
    </g>
    <g transform="matrix(1,0,0,1,128.499,138.74)">
        <path d="M77.718,220.653C76.888,220.118 76.019,219.647 75.118,219.242C74.17,218.968 73.203,218.765 72.225,218.634C74.289,218.184 76.436,218.974 77.716,220.654" style="fill:white;fill-rule:nonzero;"/>
    </g>
    <g transform="matrix(1,0,0,1,128.263,140.367)">
        <path d="M78.185,213.109C78.136,213.226 77.054,212.801 75.658,212.782C74.258,212.743 73.163,213.121 73.119,213.001C74.697,212.104 76.647,212.145 78.185,213.109" style="fill:white;fill-rule:nonzero;"/>
    </g>
    <g transform="matrix(1,0,0,1,128.345,142.464)">
        <path d="M77.994,205.313C77.143,205.057 76.261,204.919 75.372,204.902C74.491,205.017 73.63,205.253 72.813,205.602C72.78,205.562 72.987,205.314 73.429,205.046C74.618,204.363 76.062,204.281 77.32,204.827C77.789,205.044 78.02,205.267 77.994,205.311" style="fill:white;fill-rule:nonzero;"/>
    </g>
    <g transform="matrix(1,0,0,1,128.541,144.095)">
        <path d="M75.186,202.186C75.117,201.948 75.103,201.697 75.143,201.452C75.194,200.778 75.378,200.12 75.685,199.517C75.871,199.056 76.204,198.669 76.632,198.417C76.935,198.278 77.295,198.341 77.532,198.576C77.744,198.816 77.86,199.126 77.858,199.446C77.793,200.787 76.779,201.904 75.451,202.099C74.143,202.259 72.86,201.612 72.212,200.464C72.052,200.176 72.025,199.833 72.138,199.524C72.287,199.221 72.615,199.046 72.949,199.091C73.428,199.187 73.874,199.406 74.242,199.728C74.778,200.137 75.238,200.638 75.599,201.207C75.75,201.403 75.856,201.63 75.912,201.871C75.393,201.151 74.77,200.51 74.065,199.971C73.734,199.704 73.342,199.523 72.924,199.443C72.741,199.414 72.56,199.509 72.48,199.676C72.422,199.884 72.453,200.106 72.565,200.29C73.154,201.262 74.26,201.805 75.389,201.676C76.51,201.507 77.374,200.582 77.465,199.452C77.473,199.229 77.402,199.011 77.265,198.835C77.137,198.699 76.934,198.661 76.765,198.74C76.405,198.955 76.119,199.275 75.947,199.657C75.545,200.448 75.286,201.303 75.182,202.184" style="fill:white;fill-rule:nonzero;"/>
    </g>
    <g transform="matrix(1,0,0,1,146.375,196.9)">
        <path d="M9.764,2.741C6.502,8.691 4.885,15.404 5.081,22.186C5.229,26.504 14.704,146.186 14.704,146.186L34.314,147.018L33.547,34.878L35.138,35.295C35.138,35.295 43.818,83.478 44.364,91.244C44.854,98.223 51.742,149.068 51.742,149.068L69.6,148.577L66.769,83.044L62.821,18.715L59.347,0.512L9.764,2.741Z" style="fill:rgb(38,50,56);fill-rule:nonzero;"/>
    </g>
    <g transform="matrix(1,0,0,1,138.204,194.163)">
        <path d="M45.294,26.33C45.034,26.507 44.753,26.65 44.457,26.756C43.673,27.116 42.844,27.368 41.992,27.503C41.39,27.589 40.778,27.568 40.184,27.439C39.485,27.294 38.843,26.952 38.333,26.452C37.807,25.872 37.442,25.165 37.273,24.4C37.073,23.629 36.973,22.831 36.848,22.019C36.43,19.24 36.115,16.446 35.905,13.644C35.841,12.795 35.793,11.945 35.763,11.094C35.732,10.781 35.737,10.466 35.778,10.155C35.862,10.457 35.911,10.768 35.924,11.082L36.198,13.617C36.428,15.757 36.773,18.71 37.259,21.957C37.508,23.562 37.659,25.193 38.609,26.185C39.513,27.013 40.744,27.39 41.957,27.21C42.791,27.101 43.609,26.898 44.397,26.604C44.686,26.48 44.988,26.388 45.297,26.328" style="fill:rgb(69,90,100);fill-rule:nonzero;"/>
    </g>
    <g transform="matrix(1,0,0,1,137.19,193.93)">
        <path d="M41.049,11.135C41.043,11.117 41.18,11.035 41.457,11.035C41.853,11.042 42.235,11.183 42.54,11.435C43.02,11.806 43.301,12.379 43.302,12.985C43.187,13.962 42.352,14.707 41.369,14.711C40.826,14.711 40.307,14.484 39.939,14.085C39.582,13.595 39.471,12.967 39.639,12.385C39.737,12.002 39.961,11.663 40.275,11.423C40.502,11.264 40.658,11.246 40.665,11.264C40.296,11.569 40.036,11.986 39.925,12.452C39.822,12.939 39.937,13.448 40.239,13.844C40.536,14.136 40.936,14.299 41.353,14.299C42.129,14.299 42.797,13.731 42.922,12.965C42.93,12.467 42.722,11.99 42.352,11.657C41.986,11.348 41.53,11.165 41.052,11.137" style="fill:rgb(69,90,100);fill-rule:nonzero;"/>
    </g>
    <g transform="matrix(1,0,0,1,130.915,193.04)">
        <path d="M78.057,21.414C77.839,21.475 77.612,21.501 77.385,21.49C76.771,21.516 76.156,21.497 75.545,21.433C71.462,21.029 67.64,19.227 64.731,16.333C64.294,15.902 63.888,15.439 63.518,14.949C63.366,14.781 63.242,14.589 63.15,14.382C63.208,14.336 63.807,15.082 64.935,16.121C66.409,17.466 68.074,18.586 69.876,19.444C71.682,20.288 73.603,20.861 75.576,21.144C77.095,21.355 78.053,21.344 78.054,21.416" style="fill:rgb(69,90,100);fill-rule:nonzero;"/>
    </g>
    <g transform="matrix(1,0,0,1,146.734,194.018)">
        <path d="M14.9,10.7C14.622,11.398 14.252,12.057 13.8,12.657C11.743,15.664 8.986,18.126 5.767,19.831C5.12,20.214 4.424,20.509 3.699,20.707C4.32,20.296 4.962,19.918 5.623,19.575C7.16,18.664 8.606,17.608 9.942,16.422C11.271,15.228 12.482,13.91 13.561,12.486C13.975,11.867 14.422,11.271 14.9,10.7" style="fill:rgb(69,90,100);fill-rule:nonzero;"/>
    </g>
    <g transform="matrix(1,0,0,1,126.09,84.062)">
        <path d="M73.974,120.71C73.848,120.788 73.714,120.852 73.574,120.899L72.404,121.371C71.389,121.781 69.896,122.317 68.035,122.926C65.853,123.633 63.646,124.264 61.42,124.818C58.903,125.429 56.113,126.018 53.16,126.484C50.207,126.95 47.368,127.239 44.784,127.428C42.199,127.597 39.865,127.669 37.906,127.653C35.947,127.637 34.363,127.589 33.271,127.511L32.013,127.419C31.866,127.417 31.719,127.397 31.576,127.361C31.722,127.338 31.87,127.332 32.017,127.343L33.277,127.363C34.369,127.396 35.952,127.409 37.904,127.384C39.856,127.359 42.182,127.266 44.758,127.079C47.331,126.871 50.158,126.564 53.1,126.108C56.042,125.652 58.824,125.067 61.336,124.477C63.56,123.943 65.767,123.34 67.953,122.669C69.428,122.217 70.895,121.737 72.353,121.231L73.546,120.826C73.683,120.771 73.825,120.731 73.971,120.709" style="fill:rgb(38,50,56);fill-rule:nonzero;"/>
    </g>
    <g transform="matrix(1,0,0,1,128.411,113.619)">
        <path d="M31.315,14.38L47.5,9.058C47.5,9.058 47.417,13.413 53.713,13.551C60.965,13.71 67.051,7.334 67.051,7.334C67.051,7.334 82.127,12.034 85.293,14.585C88.459,17.136 78.114,70.476 78.114,70.476L77.175,86.361C78.11,87.988 78.643,89.815 78.73,91.689C78.73,94.446 78.83,96.289 78.83,96.289C59.501,102.12 40.319,107.168 22.67,101.525C22.67,101.525 23.11,92.154 24.131,89.6C25.152,87.046 24.963,86.812 24.963,86.812L26.645,57.482L26.952,35.423L31.315,14.38Z" style="fill:rgb(118,158,178);fill-rule:nonzero;"/>
    </g>
    <g transform="matrix(1,0,0,1,110.445,111.07)">
        <path d="M103.412,17.11C106.572,19.555 108.738,23.067 109.505,26.988C110.831,33.622 113.73,72.041 113.73,72.041L95.29,71.375C95.29,71.375 91.59,39.597 91.59,38.875C91.59,38.153 95.584,22.354 95.825,21.992C96.066,21.63 103.415,17.112 103.415,17.112" style="fill:rgb(118,158,178);fill-rule:nonzero;"/>
    </g>
    <g transform="matrix(1,0,0,1,109.629,110.941)">
        <path d="M100.711,17.613C99.56,18.411 98.458,19.278 97.411,20.208C96.453,21.231 95.558,22.311 94.73,23.442C95.244,22.097 96.072,20.895 97.145,19.936C98.132,18.888 99.356,18.091 100.714,17.613" style="fill:rgb(38,50,56);fill-rule:nonzero;"/>
    </g>
    <g transform="matrix(1,0,0,1,109.767,91.891)">
        <path d="M112.594,91.2L112.578,95.789C112.565,99.189 105.178,134.746 105.178,134.746L94.193,131.046L98.05,96.487L98.216,90.675L112.594,91.2Z" style="fill:rgb(255,192,157);fill-rule:nonzero;"/>
    </g>
    <g transform="matrix(1,0,0,1,113.531,77.984)">
        <path d="M90.223,147.41C90.223,147.41 85.832,150.723 84.87,152.031C83.908,153.339 81.528,158.007 79.752,159.366C79.839,160.031 80.412,160.534 81.083,160.534C81.367,160.534 81.644,160.444 81.874,160.276C83.675,159.265 85.25,157.896 86.502,156.253C87.252,155.115 88.032,155.783 88.077,156.776C88.122,157.769 87.268,164.492 87.268,164.492C87.268,164.492 85.168,171.968 85.735,172.805C85.991,173.161 86.404,173.372 86.842,173.372C87.236,173.372 87.611,173.202 87.87,172.905C88.156,172.513 90.522,166.266 90.522,166.266L91.13,162.866C91.13,162.866 89.909,173.628 90.592,174.471C90.81,174.796 91.177,174.992 91.569,174.992C91.922,174.992 92.258,174.832 92.481,174.558C92.952,174.129 93.443,169.374 93.443,169.374L94.549,163.023L94.349,175.123C94.349,175.123 94.476,176.269 95.376,176.311C96.276,176.353 96.876,175.028 96.876,175.028L98.176,162.556C98.176,162.556 97.758,169.49 98.223,169.856C98.845,170.341 99.415,170.181 99.623,169.65C100.097,167.232 100.439,164.789 100.648,162.334L101.22,150.462L101.83,144.742L90.722,144.016L90.223,147.41Z" style="fill:rgb(255,192,157);fill-rule:nonzero;"/>
    </g>
    <g transform="matrix(1,0,0,1,120.931,115.531)">
        <path d="M51.37,10.025C51.603,8.407 53.8,3.615 53.8,3.615L58.115,9.186L73.4,0L77.154,6.267L65.113,14.6L59.028,13.648L54.307,12.785L51.37,10.025Z" style="fill:rgb(118,158,178);fill-rule:nonzero;"/>
    </g>
    <g transform="matrix(1,0,0,1,110.429,104.016)">
        <path d="M91.667,44.167C91.775,44.157 92.448,50.083 93.167,57.403C93.886,64.723 94.386,70.668 94.278,70.678C94.17,70.688 93.498,64.764 92.778,57.441C92.058,50.118 91.558,44.177 91.666,44.166" style="fill:rgb(38,50,56);fill-rule:nonzero;"/>
    </g>
    <g transform="matrix(1,0,0,1,109.698,95.008)">
        <path d="M114.478,88.1C114.33,88.132 114.178,88.146 114.027,88.143C113.727,88.161 113.294,88.17 112.727,88.176C111.602,88.185 109.974,88.148 107.965,88.068C105.956,87.988 103.565,87.862 100.917,87.831C100.254,87.818 99.582,87.845 98.871,87.822C98.127,87.825 97.394,87.643 96.737,87.293C96.075,86.88 95.558,86.27 95.258,85.55C94.956,84.837 94.743,84.09 94.625,83.325C94.469,82.566 94.418,81.789 94.473,81.016C94.499,80.627 94.578,80.243 94.71,79.876C94.78,79.681 94.887,79.5 95.026,79.346C95.172,79.187 95.36,79.072 95.569,79.015C95.933,78.93 96.305,78.886 96.679,78.884L97.734,78.83L99.777,78.76C102.131,78.71 104.486,78.705 106.841,78.743L111.6,78.825L112.894,78.859C113.045,78.855 113.197,78.867 113.345,78.897C113.197,78.929 113.046,78.943 112.895,78.938L111.6,78.977L106.84,79.02C104.831,79.033 102.44,79.036 99.787,79.12L97.752,79.204L96.702,79.262C96.359,79.265 96.018,79.305 95.683,79.38C95.083,79.535 94.927,80.357 94.862,81.046C94.811,81.786 94.861,82.529 95.011,83.255C95.123,83.988 95.324,84.704 95.611,85.387C95.877,86.035 96.338,86.584 96.929,86.959C98.129,87.647 99.603,87.401 100.917,87.466C103.581,87.516 105.969,87.677 107.974,87.787C109.979,87.897 111.602,87.981 112.725,88.02L114.017,88.061C114.169,88.056 114.32,88.068 114.469,88.097" style="fill:rgb(38,50,56);fill-rule:nonzero;"/>
    </g>
    <g transform="matrix(1,0,0,1,127.461,105.539)">
        <path d="M27.549,38.325C27.571,38.497 27.575,38.67 27.562,38.843L27.523,40.324C27.475,41.656 27.408,43.504 27.323,45.768C27.156,50.368 26.95,56.715 26.816,63.731C26.706,69.72 26.649,75.71 26.644,81.7L26.632,87.148L26.616,88.63C26.622,88.803 26.611,88.976 26.583,89.147C26.55,88.977 26.535,88.804 26.536,88.631L26.479,87.15C26.424,85.334 26.387,83.518 26.366,81.702C26.302,77.102 26.294,70.743 26.427,63.721C26.56,56.699 26.811,50.349 27.049,45.753C27.168,43.453 27.278,41.597 27.369,40.313L27.482,38.836C27.487,38.663 27.509,38.491 27.549,38.322" style="fill:rgb(38,50,56);fill-rule:nonzero;"/>
    </g>
    <g transform="matrix(1,0,0,1,120.849,113.32)">
        <path d="M77.043,8.482C76.958,8.586 76.86,8.679 76.751,8.758C76.551,8.928 76.256,9.182 75.865,9.493C74.758,10.379 73.624,11.231 72.465,12.047C68.612,14.772 64.539,17.171 60.288,19.22L60.136,19.293L60.044,19.153C58.831,17.341 57.973,15.316 57.513,13.185L57.88,13.161C57.65,14.327 57.213,15.443 56.589,16.455C56.07,17.376 55.505,18.271 54.896,19.136L54.72,19.385L54.62,19.099L52.441,12.947L51.858,11.231C51.78,11.032 51.722,10.826 51.684,10.616C51.791,10.801 51.88,10.996 51.948,11.199L52.61,12.885L54.917,18.99L54.64,18.953C55.195,18.143 55.753,17.253 56.285,16.286C56.874,15.313 57.289,14.244 57.511,13.128L57.65,12.066L57.878,13.105C58.335,15.188 59.177,17.168 60.36,18.942L60.117,18.875C64.353,16.834 68.431,14.479 72.317,11.831C73.485,11.035 74.637,10.218 75.775,9.38L76.7,8.7C76.804,8.614 76.917,8.541 77.039,8.483" style="fill:rgb(38,50,56);fill-rule:nonzero;"/>
    </g>
    <g transform="matrix(1,0,0,1,119.765,109.579)">
        <path d="M55.854,107.058C55.841,106.986 55.836,106.913 55.841,106.84L55.841,106.201L55.888,103.746L56.134,94.718L57.091,64.939L58.16,35.16L58.528,26.137L58.648,23.684L58.689,23.047C58.689,22.974 58.699,22.901 58.716,22.83C58.729,22.902 58.733,22.974 58.729,23.047L58.729,23.686L58.682,26.141L58.436,35.168L57.479,64.953L56.41,94.728L56.042,103.752L55.922,106.205L55.881,106.842C55.88,106.915 55.871,106.988 55.854,107.059" style="fill:rgb(38,50,56);fill-rule:nonzero;"/>
    </g>
    <g transform="matrix(1,0,0,1,105.942,54.277)">
        <path d="M77.251,0C50.441,0 28.38,22.061 28.38,48.871C28.38,75.681 50.441,97.742 77.251,97.742C104.06,97.742 126.121,75.681 126.122,48.872L126.122,48.871C126.122,22.061 104.061,0 77.251,0M77.251,92.254C53.452,92.254 33.869,72.671 33.869,48.872C33.869,25.073 53.452,5.49 77.251,5.49C101.05,5.49 120.633,25.073 120.633,48.872C120.633,72.671 101.05,92.254 77.251,92.254" style="fill:rgb(150,146,137);fill-rule:nonzero;"/>
    </g>
    <g transform="matrix(1,0,0,1,106.051,53.18)">
        <path d="M25.521,79.057C25.521,79.057 29.662,68.452 30.257,67.9C30.852,67.348 36.977,62.39 36.977,62.39C37.614,62.291 38.266,62.377 38.856,62.638C39.878,63.683 40.766,64.851 41.5,66.116C41.658,66.367 41.706,66.672 41.632,66.959L40.969,69.059C41.387,69.674 41.6,70.406 41.578,71.15C41.442,71.726 41.22,72.277 40.92,72.787C41.328,73.541 41.429,74.424 41.2,75.25C40.88,76.031 40.28,76.664 39.517,77.025C38.754,77.386 39.05,79.2 38.986,79.625C38.922,80.05 36.673,81.032 36.44,80.97C36.207,80.908 34.568,80.232 34.568,80.232C34.568,80.232 33.814,83.789 32.868,84.584C32.229,85.085 31.477,85.421 30.678,85.563L30.087,92.3L22.216,85.235L25.521,79.057Z" style="fill:rgb(255,192,157);fill-rule:nonzero;"/>
    </g>
    <g transform="matrix(1,0,0,1,105.794,53.103)">
        <path d="M39.638,68.83C39.441,68.317 39.38,67.762 39.459,67.218C38.966,67.27 38.475,67.094 38.127,66.741C37.745,67.225 37.227,67.894 36.848,68.379L39.638,68.83Z" style="fill:rgb(150,146,137);fill-rule:nonzero;"/>
    </g>
    <g transform="matrix(1,0,0,1,105.825,53.076)">
        <path d="M35.049,68.291C35.347,68.248 35.649,68.239 35.949,68.266C37.407,68.325 38.849,68.59 40.232,69.053C40.525,69.135 40.808,69.251 41.074,69.398C40.777,69.344 40.485,69.268 40.2,69.17C39.504,68.975 38.799,68.811 38.088,68.678C37.377,68.549 36.661,68.452 35.941,68.388C35.639,68.377 35.338,68.344 35.041,68.288" style="fill:rgb(255,155,108);fill-rule:nonzero;"/>
    </g>
    <g transform="matrix(1,0,0,1,105.811,53.011)">
        <path d="M35.854,71.922C36.129,71.929 36.402,71.967 36.668,72.035C37.969,72.296 39.25,72.65 40.5,73.094C40.765,73.172 41.021,73.28 41.262,73.416C40.989,73.374 40.721,73.305 40.462,73.211C39.975,73.068 39.304,72.868 38.562,72.662C37.926,72.486 37.288,72.319 36.647,72.162C36.377,72.11 36.112,72.032 35.857,71.929" style="fill:rgb(255,155,108);fill-rule:nonzero;"/>
    </g>
    <g transform="matrix(-0.10223,0,0,0.10223,292.721,38.999)">
        <path d="M997.076,719.626C997.076,719.626 961.283,704.084 920.76,615.505C920.76,615.505 832.775,510.746 895.15,391.829C895.15,391.829 931.995,291.265 1110.53,319.405C1110.53,319.405 1126.59,588.933 997.076,719.626Z" style="fill:rgb(248,160,125);fill-rule:nonzero;"/>
    </g>
    <g transform="matrix(-0.10223,0,0,0.10223,292.721,38.999)">
        <path d="M1216.96,773.404L1228.87,742.237C1228.87,742.237 1261.74,626.224 1261.74,626.204C1265.85,611.612 1266.1,592.09 1263.44,577.094C1260.56,560.782 1258.72,543.74 1262.97,526.532C1283.7,443.102 1240.94,395.736 1240.94,395.736C1193.82,317.042 1077.84,314.431 1077.84,314.431C934.238,318.158 918.94,456.686 918.94,456.686C893.518,548.451 965.171,627.052 965.322,627.208C971.049,633.473 967.327,663.797 968.881,672.474C975.609,709.482 1010.34,732.961 1041.2,749.287C1075.13,767.221 1116.21,786.407 1154.53,790.812C1169.06,792.492 1210.14,791.294 1216.96,773.404Z" style="fill:rgb(255,192,157);fill-rule:nonzero;"/>
    </g>
    <g transform="matrix(-0.10223,0,0,0.10223,292.721,38.999)">
        <path d="M1188.91,598.136L1148.94,610.292C1148.94,610.292 1201.13,617.391 1204.25,602.326C1204.25,602.326 1198.5,572.027 1191.99,543.243C1191.99,543.243 1194.82,596.329 1188.91,598.136Z" style="fill:rgb(255,155,108);fill-rule:nonzero;"/>
    </g>
    <g transform="matrix(-0.10223,0,0,0.10223,292.721,38.999)">
        <path d="M1125.15,537.133C1125.53,545.352 1121.25,552.207 1115.69,552.451C1110.12,552.694 1105.29,546.239 1104.93,538.034C1104.57,529.805 1108.79,522.96 1114.36,522.712C1119.93,522.449 1124.79,528.919 1125.15,537.133ZM1238.12,532.904C1238.53,541.128 1234.29,547.973 1228.72,548.256C1223.14,548.519 1218.29,542.093 1217.91,533.869C1217.51,525.64 1221.73,518.756 1227.31,518.502C1232.88,518.239 1237.73,524.68 1238.12,532.904ZM1137.76,510.263C1141.33,511.297 1142.58,506.473 1142.58,506.473C1144.07,501.845 1142.97,497.752 1142.97,497.752C1141.74,494.298 1138.99,493.05 1138.99,493.05C1129.72,491.053 1111.37,492.042 1095.65,495.492C1086.94,497.401 1072.65,502.717 1071.18,510.512C1070.75,512.836 1070.22,516.87 1072.85,517.786C1072.85,517.786 1102.84,510.858 1137.76,510.263ZM1267.11,502.717C1256.9,502.147 1229.93,506.449 1207.68,508.953C1204.26,510.405 1202.43,505.801 1202.41,505.801C1200.35,501.397 1200.9,497.206 1200.9,497.206C1201.66,493.626 1204.25,492.018 1204.25,492.018C1213.17,488.851 1237.46,483.604 1253.51,484.992C1258.31,485.421 1266.02,487.774 1268.24,492.339C1268.24,492.339 1270.1,491.238 1267.11,502.717Z" style="fill:rgb(38,50,56);fill-rule:nonzero;"/>
    </g>
    <g transform="matrix(-0.10223,0,0,0.10223,292.721,38.999)">
        <path d="M1307.98,287.274C1292.7,324.779 1259.26,336.009 1259.26,336.009C1263.31,348.633 1289.93,358.119 1289.93,358.119C1266.31,398.406 1213.91,382.27 1213.91,382.27C1190.36,377.958 1164.04,382.338 1141.24,388.813C1108.04,398.211 1051.3,383.074 1031.63,418.591C1027.72,425.656 1012.12,475.024 1031.33,499.745C990.784,530.892 1010.36,593.99 1010.36,593.99L1000.55,594.536C943.658,579.807 962.759,687.392 962.772,687.427C962.323,684.961 952.864,678.944 950.984,677.146C939.861,666.486 916.419,628.221 909.062,614.721C869.038,541.318 872.802,537.581 862.068,494.254C854.731,464.671 857.903,384.511 900.965,344.233C900.965,344.233 887.584,291.435 970.91,259.489C970.91,259.489 1148.63,214.875 1234.82,273.598C1234.82,273.598 1273.26,292.828 1307.98,287.274Z" style="fill:rgb(38,50,56);fill-rule:nonzero;"/>
    </g>
    <g transform="matrix(-0.10223,0,0,0.10223,292.721,38.999)">
        <path d="M986.832,640.723C981.753,645.02 975.079,647.685 966.623,647.948C943.727,648.669 923.756,628.153 921.995,602.126C920.251,576.163 937.342,554.487 960.221,553.761C971.049,553.42 981.273,557.849 989.152,565.381C1000.67,576.368 1002,597.527 1000.09,612.265C998.552,624.046 994.452,634.277 986.832,640.723Z" style="fill:rgb(255,192,157);fill-rule:nonzero;"/>
    </g>
    <g transform="matrix(-0.10223,0,0,0.10223,292.721,38.999)">
        <path d="M970.574,577.556C968.596,563.954 941.588,578.297 946.109,585.79C948.747,590.126 953.729,593.123 957.681,596.046C963.098,600.104 965.819,603.841 966.862,610.594C967.013,611.373 967.251,613.741 966.494,614.345C963.045,616.996 950.703,604.168 947.992,601.498C942.684,596.202 941.539,586.76 943.658,579.798C945.917,572.392 950.531,568.728 958.362,568.855C964.572,568.909 970.923,569.05 970.91,576.782C970.898,576.962 970.684,578.258 970.574,577.556Z" style="fill:rgb(255,155,108);fill-rule:nonzero;"/>
    </g>
    <g transform="matrix(-0.10223,0,0,0.10223,292.721,38.999)">
        <path d="M962.409,592.148C965.135,589.128 967.99,591.388 971.049,593.381C973.86,595.242 975.532,598.009 976.37,601.215C978.289,608.241 977.756,617.785 973.98,624.163C970.932,629.327 965.551,632.645 959.514,632.762C951.178,632.888 948.372,625.658 947.71,618.623C947.532,616.762 947.176,612.289 948.976,611.052C950.898,609.727 952.472,612.723 953.86,613.995C955.792,615.685 958.553,616.216 961.023,616.328C965.797,616.519 970.326,613.892 973.156,610.228C973.634,609.576 974.065,608.801 974.321,608.022C974.511,612.64 974.331,613.688 973.722,611.159C973.306,610.02 972.721,608.951 971.985,607.987C969.931,604.879 966.557,602.838 964.292,599.915C963.171,598.545 961.045,593.698 962.409,592.148Z" style="fill:rgb(255,155,108);fill-rule:nonzero;"/>
    </g>
    <g transform="matrix(-0.10223,0,0,0.10223,292.721,38.999)">
        <path d="M1131.5,648.859L1219.85,643.11C1224.48,642.876 1226.97,646.238 1225.3,650.618C1225.3,650.618 1208.11,695.768 1179.48,697.546C1150.81,699.304 1128.22,656.591 1128.22,656.591C1126.27,652.869 1127.85,649.741 1131.5,648.859Z" style="fill:rgb(158,68,65);fill-rule:nonzero;"/>
    </g>
    <g transform="matrix(-0.10223,0,0,0.10223,292.721,38.999)">
        <path d="M1211.41,675.777C1203.61,686.501 1192.79,696.723 1179.48,697.546C1166.08,698.374 1154.03,689.453 1144.98,679.729C1160.93,659.827 1192.01,658.394 1211.41,675.777Z" style="fill:rgb(211,94,90);fill-rule:nonzero;"/>
    </g>
    <g transform="matrix(-0.10223,0,0,0.10223,292.721,38.999)">
        <path d="M1130.65,649.264C1130.94,649.142 1131.17,648.952 1131.5,648.859L1219.85,643.11C1220.77,643.076 1221.51,643.261 1222.25,643.461C1219.97,648.684 1217.71,653.931 1215.37,659.105C1201.98,662.555 1171.26,668.635 1138.7,663.972C1136.31,658.934 1133.6,654.014 1130.65,649.264Z" style="fill:white;fill-rule:nonzero;"/>
    </g>
    <g transform="matrix(-0.10223,0,0,0.10223,292.721,38.999)">
        <path d="M1204.43,728.61C1183.09,743.192 1140.96,731.577 1127.96,709.024C1120.27,695.68 1116.22,674.321 1121.73,659.7C1127.94,643.057 1146.82,641.078 1162.04,639.159C1180.86,636.747 1201.54,633.527 1220.45,637.001C1230,638.769 1230.46,645.829 1232.64,656.981C1236.72,678.053 1222.6,716.147 1204.43,728.61ZM986.754,713.434C1060.37,782.032 1155.16,790.446 1155.16,790.446C1210.39,796.244 1217.86,772.6 1217.86,772.6C1234.97,741.891 1259.26,634.452 1259.26,634.452C1258.52,637.722 1235.54,626.097 1233.16,625.176C1215.19,618.341 1195.16,620.172 1176.4,621.6C1158.08,623.033 1139.18,625.805 1123.45,636.036C1121.62,637.23 1107.48,651.213 1106.19,651.032C1096.4,649.751 1073.44,646.257 1073.44,646.257C1020.29,638.399 1010.36,593.99 1010.36,593.99L1000.55,594.536L985.161,661.585C985.161,661.585 974.567,704.23 986.754,713.434Z" style="fill:rgb(38,50,56);fill-rule:nonzero;"/>
    </g>
</svg>
