<svg version="1.1" viewBox="0 0 607 772.79" xml:space="preserve" xmlns="http://www.w3.org/2000/svg">
  <g transform="translate(-38,-52)"><path d="m38 59v366h72v-212l50 212h70l50-212v212h72v-366h-105l-52 217-52-217z" fill="#969289"/>
    <path d="m500 52c-96 0-132 63.721-132 118 0 126 200 85.221 200 148 0 23.314-6.8417 44-64 44s-64-51-64-51h-75c0 54 50 118 140 118 97.941 0 140-63.903 140-118 0-119.85-203-93-203-147 0-32.918 30-44 60-44 50.984 0 60 50 60 50h70c0-54.097-48-118-132-118z" fill="#969289"/>
    <path d="m38 449v367.7h152.65s144.6-6.4495 144.6-183.85c0-43.684-8.7917-76.961-22.01-102.37-14.318 4.9682-23.807 13.301-30.881 24.174-11.836 18.193-16.311 45.901-16.311 78.043 0 111.4-71.268 111.7-71.268 111.7h-83.447v-223.1h66.104c9.1888-18.78 20.95-34.543 34.949-47.344 6.2038-5.6727 12.819-10.707 19.746-15.221-23.376-8.8872-41.482-9.7363-41.482-9.7363z" fill="#969289"/>
    <path d="m349.5 441.3c-100.24 0-181.5 48.868-181.5 191.4 0 39.924 6.3828 72.491 17.766 98.701h8.9609s13.132 0.11436 27.656-11.299c14.524-11.413 30.666-34.476 30.666-87.402 0-65.305 16.395-118.43 92.293-120.31 5.4475-15.611 14.128-30.455 26.783-43.186 8.6221-8.6737 19.027-16.221 31.205-22.387-17.009-3.7669-35.087-5.5176-53.83-5.5176z" fill="#969289"/>
    <path d="m543.14 608.6c0.55081 7.7612 0.86328 15.769 0.86328 24.096 0 17.655-1.2958 34.032-3.7012 49.254 17.824 6.964 29.477 15.177 29.477 27.281 0 24.763-9.2871 48.494-77.385 48.494-74.289 0-76.352-57.779-76.352-57.779h-74.289c0 61.907 52.622 124.85 151.67 124.85 105.24 0 148.58-51.153 148.58-119.69 0-55.808-47.641-80.598-98.863-96.504z" fill="#969289"/>
    <path d="m488.26 442c-102.15 0-137.23 58.813-137.23 114.53 0 49.989 37.526 75.71 81.479 92.461 0.28599-5.2843 0.43555-10.713 0.43555-16.293 0-27.254-3.1559-51.381-11.387-69.076-1.5796-2.7915-2.4297-5.8234-2.4297-9.1562 0-33.063 30.953-45.398 71.193-45.398 65.002 0 67.066 51.59 67.066 51.59h73.256c0-68.098-55.717-118.66-142.39-118.66z" fill="#969289"/>
    <path d="m319.6 749.98c-14.05 23.558-31.737 40.485-49.506 52.178-2.9783 1.9598-5.9528 3.736-8.918 5.4277 26.145 11.471 56.252 16.508 88.322 16.508 19.554 0 38.37-1.934 56.018-6.0469-30.314-15.483-52.246-38.774-64.713-65.199-7.6898-0.42133-14.74-1.3922-21.203-2.8672z" fill="#969289"/>
    <path d="m490.33 522.07c-18.792 0-34.647 3.1663-44.291 8.6172-9.6442 5.451-13.902 11.306-13.902 23.781 0 0.50284 0.0416 0.95316 0.12695 1.3906 10.411 20.85 13.689 47.629 13.689 76.842 0 29.784-3.4262 57.022-14.326 78.041 1.1982 3.2922 2.9081 6.9964 5.4883 10.799 7.6597 11.288 21.503 23.189 55.277 23.189 5.2088 0 9.8573-0.1998 14.26-0.48242 15.457-28.241 24.35-64.891 24.35-111.55 0-45.292-8.3718-81.164-23-109.06-5.0447-0.98932-10.86-1.5703-17.672-1.5703z" fill="#969289"/>
  </g>
</svg>
