<svg version="1.1" xmlns="http://www.w3.org/2000/svg" xmlns:xlink="http://www.w3.org/1999/xlink" x="0px" y="0px" viewBox="0 0 1000 1000" enable-background="new 0 0 1000 1000" xml:space="preserve">
<g fill="#969289"><g><g><path d="M659.2,470.8c74.4-33.7,85.5-290.4,41.6-366.1c-57.3-98.7-329.9-78.9-416-8.3c-9.9,35-8.8,98.7-8.4,149.2h270.2v23.7H276.4c0,0.3-120.3,0.7-120.3,0.7c-207.4,0-203.1,450.4,70.6,450.4c0,0,10.1-99.7,27.6-149.7C308.7,416.4,536.8,526.3,659.2,470.8z M376.3,209.1c-31.1,0-56.4-25.2-56.4-56.4c0-31.1,25.2-56.4,56.4-56.4c31.2,0,56.4,25.3,56.4,56.4C432.8,183.8,407.5,209.1,376.3,209.1z"/><path d="M763.9,279.5c0,0-7.2,99.8-24.8,149.7c-54.3,154.2-282.3,44.4-404.8,99.9c-74.4,33.7-85.6,290.4-41.6,366.1c57.3,98.8,329.9,78.9,416,8.3c9.9-35,8.8-98.6,8.4-149.2H446.9v-23.7H717c0-0.3,133.1-0.7,133.1-0.7C1041.2,730,1058.3,279.5,763.9,279.5z M607.5,781.1c31.1,0,56.4,25.2,56.4,56.4c0,31.1-25.3,56.4-56.4,56.4c-31.1,0-56.4-25.2-56.4-56.4C551.1,806.3,576.3,781.1,607.5,781.1z"/></g></g><g></g><g></g><g></g><g></g><g></g><g></g><g></g><g></g><g></g><g></g><g></g><g></g><g></g><g></g><g></g></g>
</svg>
