<svg version="1.1" xmlns="http://www.w3.org/2000/svg" xmlns:xlink="http://www.w3.org/1999/xlink" x="0px" y="0px" viewBox="0 0 1000 1000" enable-background="new 0 0 1000 1000" xml:space="preserve">
<g fill="#969289"><path d="M990,306.6c0-6.7-2.8-12.7-7.3-17L761.4,52c-0.1-0.1-0.2-0.2-0.3-0.3c-0.3-0.4-0.7-0.7-1.1-1c-0.2-0.2-0.4-0.4-0.6-0.6c-0.4-0.3-0.8-0.6-1.2-0.9c-0.2-0.2-0.4-0.3-0.7-0.5c-0.4-0.3-0.8-0.5-1.3-0.8c-0.3-0.1-0.5-0.3-0.8-0.4c-0.4-0.2-0.8-0.4-1.2-0.6c-0.3-0.1-0.6-0.3-0.9-0.4c-0.4-0.2-0.8-0.3-1.2-0.4c-0.4-0.1-0.7-0.3-1.1-0.4c-0.1,0-0.2-0.1-0.4-0.1c-0.3-0.1-0.5-0.1-0.8-0.2c-0.4-0.1-0.7-0.2-1.1-0.3c-0.5-0.1-0.9-0.2-1.4-0.2c-0.3,0-0.6-0.1-0.9-0.1c-0.6-0.1-1.2-0.1-1.7-0.1c-0.1,0-0.3,0-0.4,0h-0.5c-0.1,0-0.1,0-0.2,0H256.3c-0.1,0-0.1,0-0.2,0h-0.5c-0.1,0-0.3,0-0.4,0c-0.6,0-1.2,0-1.7,0.1c-0.3,0-0.6,0.1-0.9,0.1c-0.5,0.1-1,0.1-1.4,0.2c-0.4,0.1-0.7,0.2-1.1,0.3c-0.3,0.1-0.5,0.1-0.8,0.2c-0.1,0-0.2,0.1-0.4,0.1c-0.4,0.1-0.7,0.2-1.1,0.4c-0.4,0.1-0.8,0.3-1.2,0.4c-0.3,0.1-0.6,0.3-0.9,0.4c-0.4,0.2-0.8,0.4-1.2,0.6c-0.3,0.1-0.5,0.3-0.8,0.4c-0.4,0.3-0.9,0.5-1.3,0.8c-0.2,0.2-0.5,0.3-0.7,0.5c-0.4,0.3-0.8,0.6-1.2,0.9c-0.2,0.2-0.4,0.4-0.6,0.6c-0.4,0.3-0.7,0.7-1.1,1c-0.1,0.1-0.2,0.2-0.3,0.3L16.2,290.7c0,0,0,0,0,0.1c-0.8,0.8-1.5,1.7-2.1,2.6c-0.2,0.3-0.3,0.6-0.5,0.9c-0.4,0.6-0.8,1.2-1.1,1.9c0,0,0,0.1,0,0.1c-0.2,0.4-0.4,0.9-0.5,1.3c-0.3,0.6-0.5,1.2-0.7,1.8c-0.1,0.4-0.2,0.9-0.3,1.3c-0.2,0.6-0.4,1.3-0.5,1.9c-0.1,0.5-0.1,0.9-0.2,1.4c-0.1,0.6-0.2,1.3-0.2,1.9c0,0.5,0,1,0,1.4c0,0.6,0,1.2,0.1,1.8c0.1,0.5,0.2,1,0.2,1.5c0.1,0.6,0.2,1.2,0.3,1.8c0.1,0.5,0.3,0.9,0.4,1.4c0.2,0.6,0.4,1.2,0.6,1.8c0.1,0.2,0.1,0.3,0.2,0.5c0.1,0.3,0.3,0.6,0.4,0.8c0.3,0.6,0.5,1.1,0.9,1.6c0.3,0.5,0.6,0.9,0.9,1.3c0.2,0.3,0.3,0.6,0.5,0.8L481.2,946c0.6,0.8,1.2,1.5,1.8,2.1c0.1,0.1,0.2,0.2,0.3,0.2c0.7,0.7,1.5,1.4,2.2,2c0.3,0.2,0.5,0.4,0.8,0.6c0.7,0.5,1.4,1,2.2,1.4c0.2,0.1,0.5,0.3,0.7,0.4c1,0.5,2,0.9,3,1.3c0.3,0.1,0.5,0.2,0.8,0.2c0.8,0.3,1.7,0.5,2.6,0.7c0.3,0.1,0.6,0.1,1,0.2c1.1,0.2,2.3,0.3,3.4,0.3c1.2,0,2.3-0.1,3.4-0.3c0.3-0.1,0.7-0.1,1-0.2c0.9-0.2,1.7-0.4,2.6-0.7c0.3-0.1,0.5-0.1,0.8-0.2c1-0.4,2-0.8,3-1.3c0.2-0.1,0.5-0.3,0.7-0.4c0.7-0.4,1.5-0.9,2.2-1.4c0.3-0.2,0.5-0.4,0.8-0.6c0.8-0.6,1.5-1.3,2.2-2c0.1-0.1,0.2-0.2,0.3-0.2c0.6-0.7,1.3-1.4,1.8-2.1l465.8-624.4C987.9,317.6,990,312.4,990,306.6z M354.1,330h291.8L500,846L354.1,330z M340.8,283.2L286.6,91.4h426.7l-54.2,191.8L340.8,283.2L340.8,283.2z M755.5,114.4l157.2,168.8h-205L755.5,114.4z M244.4,114.4l47.7,168.8h-205L244.4,114.4z M305.4,330l137.5,486.4L80.1,330H305.4z M557,816.4L694.5,330h225.3L557,816.4z"/><g></g><g></g><g></g><g></g><g></g><g></g><g></g><g></g><g></g><g></g><g></g><g></g><g></g><g></g><g></g></g>
</svg>
